<?xml version="1.0" encoding="UTF-8" standalone="no"?>
<!-- Created with Inkscape (http://www.inkscape.org/) -->

<svg
   xmlns:dc="http://purl.org/dc/elements/1.1/"
   xmlns:cc="http://creativecommons.org/ns#"
   xmlns:rdf="http://www.w3.org/1999/02/22-rdf-syntax-ns#"
   xmlns:svg="http://www.w3.org/2000/svg"
   xmlns="http://www.w3.org/2000/svg"
   xmlns:sodipodi="http://sodipodi.sourceforge.net/DTD/sodipodi-0.dtd"
   xmlns:inkscape="http://www.inkscape.org/namespaces/inkscape"
   width="626mm"
   height="120mm"
   viewBox="0 0 626 120"
   version="1.1"
   id="svg8"
   inkscape:version="0.92.3 (2405546, 2018-03-11)"
   sodipodi:docname="logo.svg">
  <defs
     id="defs2" />
  <sodipodi:namedview
     id="base"
     pagecolor="#ffffff"
     bordercolor="#666666"
     borderopacity="1.0"
     inkscape:pageopacity="0.0"
     inkscape:pageshadow="2"
     inkscape:zoom="0.079999998"
     inkscape:cx="-262.94416"
     inkscape:cy="-642.71464"
     inkscape:document-units="mm"
     inkscape:current-layer="layer2"
     showgrid="false"
     inkscape:window-width="1853"
     inkscape:window-height="1016"
     inkscape:window-x="67"
     inkscape:window-y="47"
     inkscape:window-maximized="1" />
  <metadata
     id="metadata5">
    <rdf:RDF>
      <cc:Work
         rdf:about="">
        <dc:format>image/svg+xml</dc:format>
        <dc:type
           rdf:resource="http://purl.org/dc/dcmitype/StillImage" />
        <dc:title />
      </cc:Work>
    </rdf:RDF>
  </metadata>
  <g
     inkscape:groupmode="layer"
     id="layer2"
     inkscape:label="Layer 2"
     transform="translate(0,-177)">
    <path
       style="fill:#3380c5;fill-opacity:1;stroke:#3380c5;stroke-width:2;stroke-miterlimit:4;stroke-dasharray:none;stroke-opacity:1"
       d="m 551.42429,295.69037 c -1.31098,-0.50449 -2.84344,-2.18734 -3.88306,-4.26423 -1.574,-3.14432 -3.24858,-8.607 -4.51226,-14.71945 -0.22209,-1.07406 -1.25835,-6.64974 -2.30291,-12.3904 -2.5448,-13.98585 -2.61647,-14.35427 -3.37888,-17.37349 -1.22989,-4.87032 -2.97298,-10.04892 -5.98394,-17.77754 -2.11549,-5.43029 -2.58435,-6.80752 -3.23228,-9.49482 -2.20457,-9.1434 -2.6382,-15.45311 -1.46705,-21.34651 1.0523,-5.29522 3.73962,-10.19338 7.51156,-13.69143 5.10874,-4.73773 12.31819,-5.61697 19.13993,-2.33424 2.79793,1.3464 4.4072,2.60416 11.18709,8.74346 5.74135,5.19885 9.30739,7.37524 13.25703,8.09086 0.93507,0.16942 3.73137,0.21532 4.47001,0.0734 0.30964,-0.0595 0.3836,-0.0462 0.24219,0.0436 -0.81402,0.51683 -4.84307,0.72369 -6.70441,0.34421 -3.73814,-0.76212 -7.75263,-2.96038 -13.02445,-7.13198 -5.53335,-4.37858 -7.57386,-5.83255 -9.64512,-6.87282 -4.72757,-2.37431 -10.04566,-2.3884 -13.94451,-0.037 -2.4831,1.49761 -5.10414,4.66686 -6.72003,8.12552 -2.63143,5.63225 -2.91058,12.25537 -0.92733,21.99857 0.76709,3.76848 1.30736,5.7117 2.38359,8.5734 0.55712,1.48147 1.6311,4.32992 2.38664,6.32989 2.4492,6.48359 4.08162,11.68828 5.1745,16.49809 0.26087,1.14813 1.41584,7.7844 2.56657,14.74727 2.36934,14.33617 2.62019,15.77182 3.2474,18.5856 1.40495,6.30272 2.92015,10.32513 4.50219,11.95197 l 0.78887,0.81123 0.68921,-0.0662 c 1.14403,-0.10992 1.72162,-0.87323 2.62691,-3.4715 0.68356,-1.96177 1.17085,-4.09383 1.81613,-7.94602 0.98832,-5.89969 2.80435,-14.91996 3.72649,-18.50933 1.64235,-6.3929 4.12795,-10.97185 8.63146,-15.90097 1.37247,-1.50213 3.67334,-3.69861 3.67334,-3.50664 0,0.0463 -0.51625,0.62889 -1.14718,1.29465 -2.80215,2.95685 -5.66448,7.10968 -7.23328,10.4947 -0.7446,1.60653 -1.75892,4.72257 -2.23587,6.86859 -0.72622,3.26735 -2.01806,11.32339 -2.98041,18.5856 -1.11099,8.38366 -2.09035,11.80295 -3.89849,13.61112 -1.28391,1.28389 -3.15083,1.69732 -4.79965,1.06286 z m 43.26407,-2.56579 c -1.7322,-0.40765 -3.52832,-1.93502 -4.49857,-3.82547 -1.05011,-2.046 -1.43788,-3.65151 -4.08219,-16.90212 -1.10126,-5.51844 -2.24544,-10.91231 -2.5426,-11.98637 -2.67684,-9.67434 -5.87379,-15.69585 -11.12159,-20.94775 -2.90182,-2.90411 -5.35418,-4.71709 -7.00635,-5.17967 -0.64799,-0.18141 -0.85811,-0.46827 -0.23629,-0.32252 2.9796,0.69838 8.44439,4.92606 11.90812,9.2124 3.28079,4.0599 6.00562,9.43044 8.23325,16.22746 0.87338,2.66491 1.27886,4.24963 3.39435,13.2658 3.14208,13.39182 3.58829,14.88431 4.87616,16.30981 0.96815,1.07164 2.39804,1.41605 3.27794,0.78952 1.41467,-1.00734 1.9105,-2.73469 2.95603,-10.29808 2.68936,-19.45497 3.47157,-22.43713 9.96224,-37.97927 5.08145,-12.1677 7.15265,-18.25421 8.4785,-24.91549 0.78656,-3.95162 0.88081,-4.93088 0.88144,-9.15812 5e-4,-3.5027 -0.0318,-4.0863 -0.31358,-5.65648 -0.40106,-2.2351 -1.0776,-4.5842 -1.84031,-6.38992 -0.63719,-1.50854 -1.9413,-3.8123 -2.15723,-3.81084 -0.11219,0.001 -1.23819,2.38379 -2.08113,4.4044 l -0.27879,0.66819 -1.89829,-2.85108 -1.89824,-2.85107 -3.00933,-1.31876 c -1.65513,-0.72532 -2.99441,-1.36869 -2.97614,-1.42971 0.0183,-0.061 1.02659,-0.76813 2.24081,-1.57132 l 2.20757,-1.46035 -0.52744,-0.22083 c -3.31816,-1.38926 -7.29554,-2.05355 -10.83028,-1.80885 -3.74684,0.25938 -6.26217,1.28145 -10.83979,4.40455 -5.68855,3.88105 -7.44101,4.91319 -9.73455,5.73338 -1.49347,0.53408 -3.4788,0.89487 -4.83371,0.87841 l -1.19095,-0.0145 1.27947,-0.18422 c 2.44691,-0.35231 4.82185,-1.3158 7.27263,-2.95045 0.70367,-0.46935 2.76428,-2.0439 4.57904,-3.49899 3.70506,-2.97068 5.5642,-4.26837 7.34053,-5.12361 2.33396,-1.12374 4.12032,-1.58315 7.15963,-1.8413 3.33515,-0.28328 6.74273,0.16189 10.07865,1.31669 0.96291,0.33334 1.83227,0.61847 1.93178,0.63362 0.11407,0.0174 0.51253,-0.73141 1.07744,-2.02439 0.49304,-1.12856 0.94118,-2.05279 0.9959,-2.05385 0.0547,-0.001 0.94312,1.25564 1.97429,2.79265 l 1.87482,2.79458 3.05036,1.3298 3.05036,1.32981 -1.69136,1.12962 c -0.93025,0.6213 -1.69134,1.14721 -1.69134,1.16869 0,0.0215 0.39668,0.64074 0.88152,1.37614 3.51223,5.32714 5.29192,12.76265 4.78595,19.99555 -0.47378,6.77279 -2.00458,13.21474 -5.14542,21.65313 -0.96281,2.5868 -2.00269,5.12362 -6.09532,14.87 -4.83258,11.50859 -5.8579,15.3832 -8.29703,31.35473 -1.36432,8.93373 -2.03592,11.3527 -3.63918,13.10693 -1.4896,1.62983 -3.37313,2.28101 -5.29178,1.82949 z m 18.89656,-100.61348 1.10244,-2.51322 2.43734,-1.62206 2.4373,-1.62206 -0.86784,-0.38868 c -0.4773,-0.21376 -1.68205,-0.74445 -2.67714,-1.17929 l -1.80926,-0.79062 -1.58402,-2.41622 -1.58402,-2.41621 -0.35234,0.79485 c -0.19379,0.43717 -0.72174,1.63432 -1.17324,2.66033 l -0.82085,1.86548 -2.33574,1.55649 c -1.28467,0.85607 -2.33579,1.59841 -2.33579,1.64964 0,0.0512 1.16397,0.60223 2.58663,1.22443 l 2.58659,1.13128 1.55475,2.37974 c 0.8551,1.30886 1.59481,2.33916 1.64378,2.28955 0.0489,-0.0496 0.58507,-1.22117 1.19141,-2.60343 z"
       id="path829-3"
       inkscape:connector-curvature="0"
       sodipodi:nodetypes="ccccccccccccccccccccccccccccccccscccccccccscccccccccsscccccccccccccccccccccccscccccccccscsccsccccccccccccccccsccccc" />
    <path
       inkscape:connector-curvature="0"
       id="path886"
       style="font-style:normal;font-variant:normal;font-weight:bold;font-stretch:normal;font-size:medium;line-height:1.25;font-family:Montserrat;-inkscape-font-specification:Montserrat;text-align:center;letter-spacing:5px;word-spacing:0px;text-anchor:middle;fill:#3380c5;fill-opacity:1;stroke:none;stroke-width:0.95918298"
       d="m 27.750836,208.54093 q 7.61205,0 13.17788,2.53737 5.647683,2.53734 8.676143,7.20282 3.02846,4.66545 3.02846,11.04978 0,6.30247 -3.02846,11.04977 -3.02846,4.66548 -8.676143,7.20282 -5.56583,2.45552 -13.17788,2.45552 h -11.54089 v 15.79711 H 2.950176 v -57.29519 z m -0.73668,30.69383 q 5.9751,0 9.08541,-2.53734 3.11031,-2.61922 3.11031,-7.36652 0,-4.82919 -3.11031,-7.36653 -3.11031,-2.61923 -9.08541,-2.61923 h -10.80421 v 19.88962 z" />
    <path
       inkscape:connector-curvature="0"
       id="path888"
       style="font-style:normal;font-variant:normal;font-weight:bold;font-stretch:normal;font-size:medium;line-height:1.25;font-family:Montserrat;-inkscape-font-specification:Montserrat;text-align:center;letter-spacing:5px;word-spacing:0px;text-anchor:middle;fill:#3380c5;fill-opacity:1;stroke:none;stroke-width:0.95918298"
       d="M 101.75115,253.55858 H 75.149819 l -5.07471,12.27754 h -13.58718 l 25.5373,-57.29519 h 13.09607 l 25.619121,57.29519 h -13.91453 z m -4.174371,-10.06757 -9.08537,-21.9359 -9.08537,21.9359 z" />
    <path
       inkscape:connector-curvature="0"
       id="path890"
       style="font-style:normal;font-variant:normal;font-weight:bold;font-stretch:normal;font-size:medium;line-height:1.25;font-family:Montserrat;-inkscape-font-specification:Montserrat;text-align:center;letter-spacing:5px;word-spacing:0px;text-anchor:middle;fill:#3380c5;fill-opacity:1;stroke:none;stroke-width:0.95918298"
       d="m 167.98594,265.83612 -11.04978,-15.96081 h -0.65482 -11.54089 v 15.96081 h -13.25973 v -57.29519 h 24.80062 q 7.61209,0 13.17792,2.53737 5.64765,2.53734 8.6761,7.20282 3.02846,4.66545 3.02846,11.04978 0,6.38432 -3.11031,11.04977 -3.02846,4.58363 -8.67611,7.03915 l 12.85047,18.4163 z m -0.24569,-36.50522 q 0,-4.82919 -3.11031,-7.36653 -3.11031,-2.61923 -9.08537,-2.61923 h -10.80425 v 19.97151 h 10.80425 q 5.97506,0 9.08537,-2.61923 3.11031,-2.61922 3.11031,-7.36652 z" />
    <path
       inkscape:connector-curvature="0"
       id="path892"
       style="font-style:normal;font-variant:normal;font-weight:bold;font-stretch:normal;font-size:medium;line-height:1.25;font-family:Montserrat;-inkscape-font-specification:Montserrat;text-align:center;letter-spacing:5px;word-spacing:0px;text-anchor:middle;fill:#3380c5;fill-opacity:1;stroke:none;stroke-width:0.95918298"
       d="m 224.13268,266.81832 q -8.9217,0 -16.12452,-3.84695 -7.12097,-3.84699 -11.21348,-10.55869 -4.01066,-6.79359 -4.01066,-15.22417 0,-8.43055 4.01066,-15.14229 4.09251,-6.79355 11.21348,-10.64054 7.20282,-3.84695 16.12452,-3.84695 8.92169,0 16.04266,3.84695 7.12096,3.84699 11.21347,10.64054 4.09251,6.71174 4.09251,15.14229 0,8.43058 -4.09251,15.22417 -4.09251,6.7117 -11.21347,10.55869 -7.12097,3.84695 -16.04266,3.84695 z m 0,-11.29533 q 5.07471,0 9.16722,-2.29182 4.09251,-2.37363 6.38433,-6.54803 2.37366,-4.17436 2.37366,-9.49463 0,-5.32027 -2.37366,-9.49464 -2.29182,-4.17436 -6.38433,-6.46614 -4.09251,-2.37367 -9.16722,-2.37367 -5.07472,0 -9.16723,2.37367 -4.09251,2.29178 -6.46618,6.46614 -2.29181,4.17437 -2.29181,9.49464 0,5.32027 2.29181,9.49463 2.37367,4.1744 6.46618,6.54803 4.09251,2.29182 9.16723,2.29182 z" />
    <path
       inkscape:connector-curvature="0"
       id="path894"
       style="font-style:normal;font-variant:normal;font-weight:normal;font-stretch:normal;font-size:medium;line-height:1.25;font-family:Montserrat;-inkscape-font-specification:Montserrat;text-align:center;letter-spacing:5px;word-spacing:0px;text-anchor:middle;fill:#29ca8e;fill-opacity:1;stroke:none;stroke-width:0.95918298;opacity:1"
       d="m 272.77986,208.54093 h 23.32734 q 9.08537,0 16.04267,3.68325 6.95726,3.60142 10.80424,10.14945 3.84696,6.46615 3.84696,14.81488 0,8.34873 -3.84696,14.89676 -3.84698,6.46617 -10.80424,10.14945 -6.9573,3.6014 -16.04267,3.6014 h -23.32734 z m 22.99993,52.05677 q 7.53023,0 13.17791,-2.9466 5.64768,-3.02846 8.75799,-8.26688 3.11031,-5.32027 3.11031,-12.19571 0,-6.87541 -3.11031,-12.11383 -3.11031,-5.32027 -8.75799,-8.26688 -5.64768,-3.02845 -13.17791,-3.02845 h -16.94298 v 46.81835 z" />
    <path
       inkscape:connector-curvature="0"
       id="path896"
       style="font-style:normal;font-variant:normal;font-weight:normal;font-stretch:normal;font-size:medium;line-height:1.25;font-family:Montserrat;-inkscape-font-specification:Montserrat;text-align:center;letter-spacing:5px;word-spacing:0px;text-anchor:middle;fill:#29ca8e;fill-opacity:1;stroke:none;stroke-width:0.95918298;opacity:1"
       d="m 385.71409,260.5977 v 5.23842 h -40.51591 v -57.29519 h 39.28815 v 5.23842 h -33.23121 v 20.3807 h 29.62978 v 5.1566 h -29.62978 v 21.28105 z" />
    <path
       inkscape:connector-curvature="0"
       id="path898"
       style="font-style:normal;font-variant:normal;font-weight:normal;font-stretch:normal;font-size:medium;line-height:1.25;font-family:Montserrat;-inkscape-font-specification:Montserrat;text-align:center;letter-spacing:5px;word-spacing:0px;text-anchor:middle;fill:#29ca8e;fill-opacity:1;stroke:none;stroke-width:0.95918298;opacity:1"
       d="m 452.7098,208.54093 v 57.29519 h -4.99286 l -36.83263,-46.49098 v 46.49098 h -6.05692 v -57.29519 h 4.99286 l 36.91449,46.49097 v -46.49097 z" />
    <path
       inkscape:connector-curvature="0"
       id="path900"
       style="font-style:normal;font-variant:normal;font-weight:normal;font-stretch:normal;font-size:medium;line-height:1.25;font-family:Montserrat;-inkscape-font-specification:Montserrat;text-align:center;letter-spacing:5px;word-spacing:0px;text-anchor:middle;fill:#29ca8e;fill-opacity:1;stroke:none;stroke-width:0.95918298;opacity:1"
       d="m 487.25832,213.77935 h -20.13518 v -5.23842 h 46.32727 v 5.23842 h -20.13518 v 52.05677 h -6.05691 z" />
  </g>
</svg>
